<svg width="1000" height="1000" viewBox="0 0 1000 1000" xmlns="http://www.w3.org/2000/svg"><defs/><path fill="#777777" transform="matrix(0.37169344771625185 0 0 0.37169344771625185 5.214944383955111 23.667174888399206)" d="M 872.92813536431 1490.82064029719 L 631.22813536431 1490.82064029719 L 767.82813536431 1308.82064029719 Z"/><path fill="#777777" transform="matrix(0.37169344771625185 0 0 0.37169344771625185 5.214944383955111 23.667174888399206)" d="M 389.52813536431 1490.82064029719 L 631.22813536431 1490.82064029719 L 494.62813536431 1308.82064029719 Z"/><g opacity="0.48" transform="matrix(0.37169344771625185 0 0 0.37169344771625185 5.214944383955111 23.667174888399206)"><path fill="#ffffff" d="M 389.52813536431 1490.82064029719 L 487.62813536431 1490.82064029719 L 631.22813536431 1251.62064029719 L 631.22813536431 1072.22064029719 Z"/></g><path fill="#ffffff" transform="matrix(0.37169344771625185 0 0 0.37169344771625185 5.214944383955111 23.667174888399206)" d="M 872.92813536431 1490.82064029719 L 774.82813536431 1490.82064029719 L 631.22813536431 1251.62064029719 L 631.22813536431 1072.22064029719 Z"/><path id="text" fill="#ffffff" transform="matrix(0.9763483760920121 0 0 0.9763483760920121 215.37685345268235 75.82213402536412)" d="M 154.78062219698 468.34139426125 C 151.29262219698 464.37339426125 149.38862219698 458.45339426125 149.06862219698 450.58139426125 L 161.26062219698 448.18139426125 C 161.45262219698 453.10939426125 162.23662219698 456.86939426125 163.61262219698 459.46139426125 C 164.98862219698 462.05339426125 167.14862219698 463.34939426125 170.09262219698 463.34939426125 C 172.26862219698 463.34939426125 173.88462219698 462.69339426125 174.94062219698 461.38139426125 C 175.99662219698 460.06939426125 176.52462219698 458.29339426125 176.52462219698 456.05339426125 C 176.52462219698 452.98139426125 175.83662219698 450.37339426125 174.46062219698 448.22939426125 C 173.08462219698 446.08539426125 170.92462219698 443.73339426125 167.98062219698 441.17339426125 L 158.18862219698 432.62939426125 C 155.18062219698 430.06939426125 152.92462219698 427.31739426125 151.42062219698 424.37339426125 C 149.91662219698 421.42939426125 149.16462219698 417.90939426125 149.16462219698 413.81339426125 C 149.16462219698 407.73339426125 150.94062219698 403.01339426125 154.49262219698 399.65339426125 C 158.04462219698 396.29339426125 162.95662219698 394.61339426125 169.22862219698 394.61339426125 C 175.94862219698 394.61339426125 180.76462219698 396.51739426125 183.67662219698 400.32539426125 C 186.58862219698 404.13339426125 188.26862219698 409.26939426125 188.71662219698 415.73339426125 L 176.52462219698 417.84539426125 C 176.33262219698 413.62139426125 175.74062219698 410.43739426125 174.74862219698 408.29339426125 C 173.75662219698 406.14939426125 171.82062219698 405.07739426125 168.94062219698 405.07739426125 C 166.89262219698 405.07739426125 165.29262219698 405.76539426125 164.14062219698 407.14139426125 C 162.98862219698 408.51739426125 162.41262219698 410.26139426125 162.41262219698 412.37339426125 C 162.41262219698 414.86939426125 162.90862219698 416.96539426125 163.90062219698 418.66139426125 C 164.89262219698 420.35739426125 166.50862219698 422.16539426125 168.74862219698 424.08539426125 L 178.44462219698 432.62939426125 C 182.09262219698 435.76539426125 184.94062219698 439.12539426125 186.98862219698 442.70939426125 C 189.03662219698 446.29339426125 190.06062219698 450.45339426125 190.06062219698 455.18939426125 C 190.06062219698 458.90139426125 189.24462219698 462.19739426125 187.61262219698 465.07739426125 C 185.98062219698 467.95739426125 183.69262219698 470.21339426125 180.74862219698 471.84539426125 C 177.80462219698 473.47739426125 174.41262219698 474.29339426125 170.57262219698 474.29339426125 C 163.53262219698 474.29339426125 158.26862219698 472.30939426125 154.78062219698 468.34139426125 Z M 214.44462219698 395.47739426125 L 229.61262219698 395.47739426125 L 245.16462219698 473.23739426125 L 232.01262219698 473.23739426125 L 228.94062219698 455.28539426125 L 215.40462219698 455.28539426125 L 212.23662219698 473.23739426125 L 198.89262219698 473.23739426125 L 214.44462219698 395.47739426125 Z M 227.40462219698 446.26139426125 L 222.12462219698 413.62139426125 L 216.84462219698 446.26139426125 L 227.40462219698 446.26139426125 Z M 257.74062219698 395.47739426125 L 289.70862219698 395.47739426125 L 289.70862219698 405.26939426125 L 271.85262219698 405.26939426125 L 271.85262219698 427.92539426125 L 286.44462219698 427.92539426125 L 286.44462219698 437.81339426125 L 271.85262219698 437.81339426125 L 271.85262219698 473.23739426125 L 257.74062219698 473.23739426125 L 257.74062219698 395.47739426125 Z M 302.18862219698 395.47739426125 L 334.82862219698 395.47739426125 L 334.82862219698 405.46139426125 L 316.30062219698 405.46139426125 L 316.30062219698 427.82939426125 L 330.89262219698 427.82939426125 L 330.89262219698 437.71739426125 L 316.30062219698 437.71739426125 L 316.30062219698 463.54139426125 L 335.02062219698 463.54139426125 L 335.02062219698 473.23739426125 L 302.18862219698 473.23739426125 L 302.18862219698 395.47739426125 Z M 379.80462219698 467.42939426125 C 376.57262219698 462.85339426125 374.95662219698 456.24539426125 374.95662219698 447.60539426125 L 374.95662219698 421.49339426125 C 374.95662219698 412.59739426125 376.62062219698 405.89339426125 379.94862219698 401.38139426125 C 383.27662219698 396.86939426125 389.00462219698 394.61339426125 397.13262219698 394.61339426125 C 404.81262219698 394.61339426125 410.31662219698 396.51739426125 413.64462219698 400.32539426125 C 416.97262219698 404.13339426125 418.63662219698 409.78139426125 418.63662219698 417.26939426125 L 418.63662219698 421.30139426125 L 405.10062219698 421.30139426125 L 405.10062219698 416.88539426125 C 405.10062219698 414.06939426125 404.92462219698 411.82939426125 404.57262219698 410.16539426125 C 404.22062219698 408.50139426125 403.48462219698 407.22139426125 402.36462219698 406.32539426125 C 401.24462219698 405.42939426125 399.56462219698 404.98139426125 397.32462219698 404.98139426125 C 394.95662219698 404.98139426125 393.19662219698 405.55739426125 392.04462219698 406.70939426125 C 390.89262219698 407.86139426125 390.14062219698 409.33339426125 389.78862219698 411.12539426125 C 389.43662219698 412.91739426125 389.26062219698 415.25339426125 389.26062219698 418.13339426125 L 389.26062219698 450.67739426125 C 389.26062219698 455.09339426125 389.85262219698 458.38939426125 391.03662219698 460.56539426125 C 392.22062219698 462.74139426125 394.44462219698 463.82939426125 397.70862219698 463.82939426125 C 400.90862219698 463.82939426125 403.13262219698 462.67739426125 404.38062219698 460.37339426125 C 405.62862219698 458.06939426125 406.25262219698 454.61339426125 406.25262219698 450.00539426125 L 406.25262219698 442.70939426125 L 397.90062219698 442.70939426125 L 397.90062219698 433.78139426125 L 419.02062219698 433.78139426125 L 419.02062219698 473.23739426125 L 409.80462219698 473.23739426125 L 408.84462219698 465.65339426125 C 406.41262219698 471.41339426125 402.02862219698 474.29339426125 395.69262219698 474.29339426125 C 388.33262219698 474.29339426125 383.03662219698 472.00539426125 379.80462219698 467.42939426125 Z M 442.73262219698 471.22139426125 C 439.53262219698 469.17339426125 437.29262219698 466.26139426125 436.01262219698 462.48539426125 C 434.73262219698 458.70939426125 434.09262219698 453.90939426125 434.09262219698 448.08539426125 L 434.09262219698 395.47739426125 L 447.91662219698 395.47739426125 L 447.91662219698 449.71739426125 C 447.91662219698 454.19739426125 448.44462219698 457.65339426125 449.50062219698 460.08539426125 C 450.55662219698 462.51739426125 452.71662219698 463.73339426125 455.98062219698 463.73339426125 C 459.30862219698 463.73339426125 461.50062219698 462.51739426125 462.55662219698 460.08539426125 C 463.61262219698 457.65339426125 464.14062219698 454.19739426125 464.14062219698 449.71739426125 L 464.14062219698 395.47739426125 L 477.86862219698 395.47739426125 L 477.86862219698 448.08539426125 C 477.86862219698 453.84539426125 477.22862219698 458.62939426125 475.94862219698 462.43739426125 C 474.66862219698 466.24539426125 472.42862219698 469.17339426125 469.22862219698 471.22139426125 C 466.02862219698 473.26939426125 461.61262219698 474.29339426125 455.98062219698 474.29339426125 C 450.34862219698 474.29339426125 445.93262219698 473.26939426125 442.73262219698 471.22139426125 Z M 505.03662219698 395.47739426125 L 520.20462219698 395.47739426125 L 535.75662219698 473.23739426125 L 522.60462219698 473.23739426125 L 519.53262219698 455.28539426125 L 505.99662219698 455.28539426125 L 502.82862219698 473.23739426125 L 489.48462219698 473.23739426125 L 505.03662219698 395.47739426125 Z M 517.99662219698 446.26139426125 L 512.71662219698 413.62139426125 L 507.43662219698 446.26139426125 L 517.99662219698 446.26139426125 Z M 548.33262219698 395.47739426125 L 567.05262219698 395.47739426125 C 575.24462219698 395.47739426125 581.35662219698 397.02939426125 585.38862219698 400.13339426125 C 589.42062219698 403.23739426125 591.43662219698 408.56539426125 591.43662219698 416.11739426125 C 591.43662219698 421.04539426125 590.71662219698 425.06139426125 589.27662219698 428.16539426125 C 587.83662219698 431.26939426125 585.35662219698 433.52539426125 581.83662219698 434.93339426125 L 592.68462219698 473.23739426125 L 578.47662219698 473.23739426125 L 569.16462219698 437.62139426125 L 562.44462219698 437.62139426125 L 562.44462219698 473.23739426125 L 548.33262219698 473.23739426125 L 548.33262219698 395.47739426125 Z M 566.95662219698 428.78939426125 C 570.98862219698 428.78939426125 573.85262219698 427.86139426125 575.54862219698 426.00539426125 C 577.24462219698 424.14939426125 578.09262219698 421.10939426125 578.09262219698 416.88539426125 C 578.09262219698 412.78939426125 577.34062219698 409.81339426125 575.83662219698 407.95739426125 C 574.33262219698 406.10139426125 571.62862219698 405.17339426125 567.72462219698 405.17339426125 L 562.44462219698 405.17339426125 L 562.44462219698 428.78939426125 L 566.95662219698 428.78939426125 Z M 606.98862219698 395.47739426125 L 625.32462219698 395.47739426125 C 631.59662219698 395.47739426125 636.52462219698 396.32539426125 640.10862219698 398.02139426125 C 643.69262219698 399.71739426125 646.23662219698 402.30939426125 647.74062219698 405.79739426125 C 649.24462219698 409.28539426125 649.99662219698 413.90939426125 649.99662219698 419.66939426125 L 649.99662219698 447.98939426125 C 649.99662219698 453.87739426125 649.24462219698 458.64539426125 647.74062219698 462.29339426125 C 646.23662219698 465.94139426125 643.72462219698 468.67739426125 640.20462219698 470.50139426125 C 636.68462219698 472.32539426125 631.91662219698 473.23739426125 625.90062219698 473.23739426125 L 606.98862219698 473.23739426125 L 606.98862219698 395.47739426125 Z M 625.51662219698 463.34939426125 C 628.65262219698 463.34939426125 630.92462219698 462.80539426125 632.33262219698 461.71739426125 C 633.74062219698 460.62939426125 634.63662219698 459.10939426125 635.02062219698 457.15739426125 C 635.40462219698 455.20539426125 635.59662219698 452.30939426125 635.59662219698 448.46939426125 L 635.59662219698 418.70939426125 C 635.59662219698 415.25339426125 635.37262219698 412.62939426125 634.92462219698 410.83739426125 C 634.47662219698 409.04539426125 633.53262219698 407.71739426125 632.09262219698 406.85339426125 C 630.65262219698 405.98939426125 628.39662219698 405.55739426125 625.32462219698 405.55739426125 L 621.10062219698 405.55739426125 L 621.10062219698 463.34939426125 L 625.51662219698 463.34939426125 Z"/></svg>