<svg xmlns="http://www.w3.org/2000/svg" x="0px" y="0px" viewBox="0 0 864 864" enable-background="new 0 0 864 864"><style>.fs0,.ls0{fill:#fff}</style><g transform="matrix(.6949 0 0 .6949 131.8017574692 160.9017574692)" class="ls0"><path d="M393.6,173.3v86.1h-18v-43v-25h-25h-7.9h-10.4l-7.3,7.3l-26.8,26.8c-38.9,38.9-38.9,38.9-57.5,57.5l-13.9,13.9l-17.7,17.7	l17.7,17.7l66.1,66.1l100.6,100.6v191.8h-68.7L192.4,558.3l18-7.5L325,665.3l7.3,7.3h10.4h7.9h25v-25V516.7v-10.4l-7.3-7.3	l-14.4-14.4L183.7,314.5l5.1-5.1c58.4-58.4,58.4-58.4,103.1-103.1l33-33H393.6 M418.6,148.3c-25.8,0-86.1,0-104.1,0	c-96.6,96.6-67.2,67.2-166.2,166.2c7.5,7.5,194.8,194.8,202.2,202.2v130.9h-7.9L216.3,521.3l-68,28.2l166.2,166.2	c10.9,0,87.3,0,104.1,0c0-4.5,0-222.5,0-227.1c-6-6-166-166-174.1-174.1c39.5-39.5,20.6-20.6,98.1-98.2h7.9v68h68	C418.6,278.4,418.6,154.3,418.6,148.3L418.6,148.3z"/><path d="M539.2,173.3l132.4,132.4l-18,7.5L539,198.7l-7.3-7.3h-10.4h-7.9h-25v25v431.3v25h25h7.9h10.4l7.3-7.3L665.3,539l7.3-7.3	v-10.4V466v-25h-25h-41.2v-18h84.2v116.2L539.2,690.7h-68.7V173.3H539.2 M549.5,148.3c-10.9,0-87.3,0-104.1,0c0,16.4,0,558,0,567.4	c25.8,0,86.1,0,104.1,0l166.2-166.2c0-14.2,0-136.1,0-151.5c-2.5,0-94.7,0-134.2,0v68h66.2v55.3L521.3,647.7h-7.9	c0-13,0-404.4,0-431.3h7.9l126.3,126.3l68-28.2L549.5,148.3L549.5,148.3z"/></g><g><path class="fs0" d="M244.2,164.3h370.5v47H244.2V164.3z"/><path class="fs0" d="M244.2,97.2h370.5v47H244.2V97.2z"/><path class="fs0" d="M186.7,39.7v526.8c0,49.5,21.8,96.1,59.7,128l183.1,153.6l183.1-153.6c38-31.8,59.7-78.5,59.7-128V39.7H186.7z M637.2,566.6c0,39.1-17.2,76-47.2,101.2L429.5,802.5L268.9,667.7c-30-25.2-47.2-62-47.2-101.2V74.7h415.5V566.6z"/></g></svg>